# xmcd CD database file
#
# Track frame offsets:
#	150
#	25115
#	40675
#
# Disc length: 741 seconds
#
# Revision: 0
# Processed by: cddbd v1.5.1PL0 Copyright (c) Steve Scherf et al.
# Submitted via: CDex 1.51
#
DISCID=1702e303
DTITLE=Boycott - Walk Right On
DYEAR=1992
DGENRE=Suomirock
TTITLE0=Walk Right On
TTITLE1=Walls Come Down
TTITLE2=Blue Jean Baby
EXTD=YEAR: 1992
EXTT0=
EXTT1=
EXTT2=
PLAYORDER=
